<svg width="110" height="28" viewBox="0 0 110 28" fill="none" xmlns="http://www.w3.org/2000/svg">
<path d="M101 18.5858C101 19.4767 102.077 19.9229 102.707 19.2929L106.293 15.7071C106.683 15.3166 106.683 14.6834 106.293 14.2929L102.707 10.7071C102.077 10.0771 101 10.5233 101 11.4142V18.5858Z" fill="white"/>
<path d="M99.8745 28H4.39595C2.90999 28 2.16701 28 1.67674 27.6892C1.24752 27.4172 0.937955 26.9919 0.810943 26.4999C0.665868 25.9378 0.894168 25.2308 1.35077 23.8167L8.32533 2.21672C8.58254 1.42014 8.71115 1.02185 8.95432 0.727129C9.16904 0.466902 9.4461 0.26522 9.75971 0.140852C10.1149 0 10.5334 0 11.3705 0H101.201C103.913 0 105.269 0 105.839 0.513904C106.334 0.958955 106.574 1.62051 106.481 2.27902C106.374 3.0394 105.335 3.91038 103.257 5.65234L95.4142 12.2269C94.388 13.0872 93.8749 13.5173 93.6924 14.0293C93.5323 14.4784 93.5379 14.9699 93.7082 15.4152C93.9023 15.9229 94.4251 16.3412 95.4707 17.1778L101.874 22.3014C104.058 24.0492 105.15 24.9231 105.271 25.6894C105.375 26.3527 105.139 27.0241 104.643 27.4769C104.071 28 102.672 28 99.8745 28Z" fill="white"/>
<path d="M21.83 11.86V14H24.43V14.88H21.83V17.07H24.73V18H20.69V10.94H24.73V11.86H21.83ZM29.0965 18L27.7465 16.05L26.5665 18H25.2965L27.1165 15.14L25.2765 12.49H26.5665L27.8865 14.39L29.0565 12.49H30.3165L28.4965 15.27L30.3865 18H29.0965ZM34.3383 12.42C34.8183 12.42 35.2449 12.5333 35.6183 12.76C35.9983 12.9867 36.2949 13.3133 36.5083 13.74C36.7216 14.1667 36.8283 14.6667 36.8283 15.24C36.8283 15.82 36.7216 16.3233 36.5083 16.75C36.2949 17.1767 35.9983 17.5033 35.6183 17.73C35.2449 17.9567 34.8183 18.07 34.3383 18.07C33.8383 18.07 33.4116 17.9467 33.0583 17.7C32.7049 17.4533 32.4583 17.1267 32.3183 16.72V20.62H31.1783V12.49H32.3183V13.77C32.4583 13.3633 32.7049 13.0367 33.0583 12.79C33.4116 12.5433 33.8383 12.42 34.3383 12.42ZM33.9883 13.42C33.6683 13.42 33.3816 13.4967 33.1283 13.65C32.8749 13.7967 32.6749 14.01 32.5283 14.29C32.3816 14.5633 32.3083 14.88 32.3083 15.24C32.3083 15.6067 32.3816 15.9267 32.5283 16.2C32.6749 16.4733 32.8749 16.6867 33.1283 16.84C33.3816 16.9867 33.6683 17.06 33.9883 17.06C34.4949 17.06 34.9016 16.9 35.2083 16.58C35.5149 16.2533 35.6683 15.8067 35.6683 15.24C35.6683 14.68 35.5149 14.2367 35.2083 13.91C34.9016 13.5833 34.4949 13.42 33.9883 13.42ZM39.0663 10.6V18H37.9263V10.6H39.0663ZM42.9659 12.42C43.4992 12.42 43.9792 12.5333 44.4059 12.76C44.8325 12.9867 45.1659 13.3133 45.4059 13.74C45.6459 14.1667 45.7659 14.6667 45.7659 15.24C45.7659 15.82 45.6459 16.3233 45.4059 16.75C45.1659 17.1767 44.8325 17.5033 44.4059 17.73C43.9792 17.9567 43.4992 18.07 42.9659 18.07C42.4325 18.07 41.9525 17.9567 41.5259 17.73C41.1059 17.5033 40.7725 17.1767 40.5259 16.75C40.2859 16.3167 40.1659 15.8133 40.1659 15.24C40.1659 14.6667 40.2859 14.1667 40.5259 13.74C40.7725 13.3133 41.1059 12.9867 41.5259 12.76C41.9525 12.5333 42.4325 12.42 42.9659 12.42ZM42.9659 13.41C42.6725 13.41 42.4025 13.4767 42.1559 13.61C41.9092 13.7433 41.7092 13.95 41.5559 14.23C41.4092 14.5033 41.3359 14.84 41.3359 15.24C41.3359 15.6467 41.4092 15.9867 41.5559 16.26C41.7092 16.5333 41.9092 16.7367 42.1559 16.87C42.4025 17.0033 42.6725 17.07 42.9659 17.07C43.2592 17.07 43.5292 17.0033 43.7759 16.87C44.0225 16.7367 44.2192 16.5333 44.3659 16.26C44.5192 15.9867 44.5959 15.6467 44.5959 15.24C44.5959 14.84 44.5192 14.5033 44.3659 14.23C44.2192 13.95 44.0225 13.7433 43.7759 13.61C43.5292 13.4767 43.2592 13.41 42.9659 13.41ZM48.0019 13.57C48.1885 13.21 48.4552 12.9267 48.8019 12.72C49.1485 12.5067 49.5485 12.4 50.0019 12.4V13.64H49.6619C49.1619 13.64 48.7585 13.7633 48.4519 14.01C48.1519 14.25 48.0019 14.65 48.0019 15.21V18H46.8619V12.49H48.0019V13.57ZM55.976 14.98C55.976 15.1667 55.9627 15.33 55.936 15.47H51.696C51.716 16.0367 51.8727 16.4567 52.166 16.73C52.4593 17.0033 52.8227 17.14 53.256 17.14C53.636 17.14 53.956 17.0433 54.216 16.85C54.4827 16.6567 54.646 16.4 54.706 16.08H55.926C55.8527 16.4667 55.6993 16.81 55.466 17.11C55.2327 17.41 54.9293 17.6467 54.556 17.82C54.1827 17.9867 53.766 18.07 53.306 18.07C52.7727 18.07 52.2993 17.9567 51.886 17.73C51.4793 17.5033 51.1593 17.1767 50.926 16.75C50.6927 16.3233 50.576 15.82 50.576 15.24C50.576 14.6667 50.6927 14.1667 50.926 13.74C51.1593 13.3133 51.4793 12.9867 51.886 12.76C52.2993 12.5333 52.7727 12.42 53.306 12.42C53.846 12.42 54.316 12.5333 54.716 12.76C55.1227 12.98 55.4327 13.2867 55.646 13.68C55.866 14.0667 55.976 14.5 55.976 14.98ZM54.826 14.95C54.8393 14.59 54.776 14.29 54.636 14.05C54.5027 13.8033 54.316 13.6233 54.076 13.51C53.8427 13.39 53.586 13.33 53.306 13.33C52.8593 13.33 52.486 13.4667 52.186 13.74C51.886 14.0133 51.7227 14.4167 51.696 14.95H54.826ZM62.5005 12.4C63.1405 12.4 63.6538 12.6067 64.0405 13.02C64.4271 13.4333 64.6205 14.0233 64.6205 14.79V18H63.4805V14.91C63.4805 14.4167 63.3538 14.0367 63.1005 13.77C62.8471 13.4967 62.5005 13.36 62.0605 13.36C61.6071 13.36 61.2438 13.5067 60.9705 13.8C60.6971 14.0867 60.5605 14.51 60.5605 15.07V18H59.4205V12.49H60.5605V13.7C60.7071 13.2867 60.9538 12.9667 61.3005 12.74C61.6471 12.5133 62.0471 12.4 62.5005 12.4ZM68.4737 12.42C69.007 12.42 69.487 12.5333 69.9137 12.76C70.3403 12.9867 70.6737 13.3133 70.9137 13.74C71.1537 14.1667 71.2737 14.6667 71.2737 15.24C71.2737 15.82 71.1537 16.3233 70.9137 16.75C70.6737 17.1767 70.3403 17.5033 69.9137 17.73C69.487 17.9567 69.007 18.07 68.4737 18.07C67.9403 18.07 67.4603 17.9567 67.0337 17.73C66.6137 17.5033 66.2803 17.1767 66.0337 16.75C65.7937 16.3167 65.6737 15.8133 65.6737 15.24C65.6737 14.6667 65.7937 14.1667 66.0337 13.74C66.2803 13.3133 66.6137 12.9867 67.0337 12.76C67.4603 12.5333 67.9403 12.42 68.4737 12.42ZM68.4737 13.41C68.1803 13.41 67.9103 13.4767 67.6637 13.61C67.417 13.7433 67.217 13.95 67.0637 14.23C66.917 14.5033 66.8437 14.84 66.8437 15.24C66.8437 15.6467 66.917 15.9867 67.0637 16.26C67.217 16.5333 67.417 16.7367 67.6637 16.87C67.9103 17.0033 68.1803 17.07 68.4737 17.07C68.767 17.07 69.037 17.0033 69.2837 16.87C69.5303 16.7367 69.727 16.5333 69.8737 16.26C70.027 15.9867 70.1037 15.6467 70.1037 15.24C70.1037 14.84 70.027 14.5033 69.8737 14.23C69.727 13.95 69.5303 13.7433 69.2837 13.61C69.037 13.4767 68.767 13.41 68.4737 13.41ZM80.0897 12.49L78.5597 18H77.2997L75.9397 13.74L74.5597 18H73.3097L71.7797 12.49H72.9297L73.9797 16.95L75.3597 12.49H76.5597L77.9597 16.95L79.0097 12.49H80.0897Z" fill="#111111"/>
</svg>
