<svg width="17" height="19" viewBox="0 0 17 19" fill="none" xmlns="http://www.w3.org/2000/svg">
<path d="M14.1492 3.33357L16.8243 3.33357L16.8243 1.65114L14.1492 1.65114C13.9708 1.16677 13.648 0.748782 13.2246 0.453538C12.8012 0.158295 12.2974 -1.97876e-07 11.7812 -2.2044e-07C11.265 -2.43004e-07 10.7612 0.158295 10.3378 0.453538C9.91436 0.748782 9.59165 1.16677 9.41319 1.65114L3.74252e-06 1.65114L3.66898e-06 3.33356L9.40477 3.33357C9.5816 3.82076 9.90414 4.24169 10.3286 4.53916C10.753 4.83663 11.2587 4.99621 11.777 4.99621C12.2953 4.99621 12.801 4.83663 13.2254 4.53916C13.6499 4.24169 13.9724 3.82076 14.1492 3.33357Z" fill="white"/>
<path d="M7.41951 10.0633L16.8243 10.0633L16.8243 8.38085L7.41951 8.38085C7.24104 7.89648 6.91833 7.47849 6.49491 7.18325C6.07148 6.888 5.56769 6.72971 5.05149 6.72971C4.53529 6.72971 4.03151 6.888 3.60808 7.18325C3.18465 7.47849 2.86194 7.89648 2.68348 8.38085L3.74252e-06 8.38085L3.66898e-06 10.0633L2.67506 10.0633C2.85353 10.5476 3.17624 10.9656 3.59967 11.2609C4.0231 11.5561 4.52688 11.7144 5.04308 11.7144C5.55928 11.7144 6.06306 11.5561 6.48649 11.2609C6.90992 10.9656 7.23263 10.5476 7.4111 10.0633L7.41951 10.0633Z" fill="white"/>
<path d="M12.4668 16.793L16.8243 16.793L16.8243 15.1106L12.4668 15.1106C12.2883 14.6262 11.9656 14.2082 11.5422 13.913C11.1188 13.6177 10.615 13.4594 10.0988 13.4594C9.58258 13.4594 9.07879 13.6177 8.65536 13.913C8.23193 14.2082 7.90923 14.6262 7.73076 15.1106L3.74252e-06 15.1106L3.66898e-06 16.793L7.72235 16.793C7.90081 17.2774 8.22352 17.6953 8.64695 17.9906C9.07038 18.2858 9.57416 18.4441 10.0904 18.4441C10.6066 18.4441 11.1103 18.2858 11.5338 17.9906C11.9572 17.6953 12.2799 17.2774 12.4584 16.793L12.4668 16.793Z" fill="white"/>
</svg>
