<svg width="183" height="62" viewBox="0 0 183 62" fill="none" xmlns="http://www.w3.org/2000/svg">
<path d="M6 6.5V43C6 44.3333 6.8 47 10 47H73" stroke="#C0C0C0"/>
<circle opacity="0.6" cx="6" cy="6" r="6" fill="white"/>
<circle cx="6" cy="6" r="4" fill="white"/>
<path d="M71.8604 35.4189C72.541 33.3771 74.4516 32 76.6038 32H176.063C179.476 32 181.886 35.3435 180.806 38.5811L174.14 58.5811C173.459 60.6229 171.548 62 169.396 62H69.9371C66.5243 62 64.1145 58.6565 65.1937 55.4189L71.8604 35.4189Z" fill="#F1F1F1"/>
<path d="M82.23 43.94V44.86H80.26V51H79.11V44.86H77.15V43.94H82.23ZM84.2206 46.57C84.4073 46.21 84.674 45.9267 85.0206 45.72C85.3673 45.5067 85.7673 45.4 86.2206 45.4V46.64H85.8806C85.3806 46.64 84.9773 46.7633 84.6706 47.01C84.3706 47.25 84.2206 47.65 84.2206 48.21V51H83.0806V45.49H84.2206V46.57ZM89.2848 45.42C89.7848 45.42 90.2114 45.5433 90.5648 45.79C90.9181 46.0367 91.1681 46.3633 91.3148 46.77V45.49H92.4548V51H91.3148V49.72C91.1681 50.1267 90.9181 50.4533 90.5648 50.7C90.2114 50.9467 89.7848 51.07 89.2848 51.07C88.8048 51.07 88.3748 50.9567 87.9948 50.73C87.6214 50.5033 87.3281 50.1767 87.1148 49.75C86.9014 49.3233 86.7948 48.82 86.7948 48.24C86.7948 47.6667 86.9014 47.1667 87.1148 46.74C87.3281 46.3133 87.6214 45.9867 87.9948 45.76C88.3748 45.5333 88.8048 45.42 89.2848 45.42ZM89.6348 46.42C89.1281 46.42 88.7214 46.5833 88.4148 46.91C88.1148 47.23 87.9648 47.6733 87.9648 48.24C87.9648 48.8067 88.1148 49.2533 88.4148 49.58C88.7214 49.9 89.1281 50.06 89.6348 50.06C89.9548 50.06 90.2414 49.9867 90.4948 49.84C90.7481 49.6867 90.9481 49.4733 91.0948 49.2C91.2414 48.9267 91.3148 48.6067 91.3148 48.24C91.3148 47.88 91.2414 47.5633 91.0948 47.29C90.9481 47.01 90.7481 46.7967 90.4948 46.65C90.2414 46.4967 89.9548 46.42 89.6348 46.42ZM96.9028 45.4C97.5428 45.4 98.0561 45.6067 98.4428 46.02C98.8295 46.4333 99.0228 47.0233 99.0228 47.79V51H97.8828V47.91C97.8828 47.4167 97.7561 47.0367 97.5028 46.77C97.2495 46.4967 96.9028 46.36 96.4628 46.36C96.0095 46.36 95.6461 46.5067 95.3728 46.8C95.0995 47.0867 94.9628 47.51 94.9628 48.07V51H93.8228V45.49H94.9628V46.7C95.1095 46.2867 95.3561 45.9667 95.7028 45.74C96.0495 45.5133 96.4495 45.4 96.9028 45.4ZM102.166 45.42C102.813 45.42 103.329 45.5867 103.716 45.92C104.109 46.2467 104.349 46.6867 104.436 47.24H103.356C103.309 46.94 103.179 46.7 102.966 46.52C102.759 46.3333 102.483 46.24 102.136 46.24C101.849 46.24 101.626 46.31 101.466 46.45C101.313 46.5833 101.236 46.7667 101.236 47C101.236 47.1733 101.293 47.3133 101.406 47.42C101.519 47.5267 101.659 47.61 101.826 47.67C101.999 47.73 102.243 47.7967 102.556 47.87C102.969 47.9633 103.303 48.06 103.556 48.16C103.816 48.26 104.036 48.42 104.216 48.64C104.403 48.8533 104.496 49.1467 104.496 49.52C104.496 49.98 104.319 50.3533 103.966 50.64C103.619 50.9267 103.149 51.07 102.556 51.07C101.869 51.07 101.313 50.91 100.886 50.59C100.466 50.27 100.213 49.8233 100.126 49.25H101.236C101.269 49.55 101.403 49.7933 101.636 49.98C101.869 50.1667 102.176 50.26 102.556 50.26C102.829 50.26 103.043 50.19 103.196 50.05C103.356 49.9033 103.436 49.72 103.436 49.5C103.436 49.3067 103.376 49.1533 103.256 49.04C103.136 48.9267 102.986 48.84 102.806 48.78C102.626 48.7133 102.379 48.6467 102.066 48.58C101.666 48.4867 101.339 48.3933 101.086 48.3C100.839 48.2067 100.626 48.0567 100.446 47.85C100.273 47.6367 100.186 47.35 100.186 46.99C100.186 46.5233 100.359 46.1467 100.706 45.86C101.059 45.5667 101.546 45.42 102.166 45.42ZM106.779 43.6V51H105.639V43.6H106.779ZM107.999 43.89C107.999 43.6967 108.065 43.5367 108.199 43.41C108.332 43.2833 108.509 43.22 108.729 43.22C108.949 43.22 109.125 43.2833 109.259 43.41C109.399 43.5367 109.469 43.6967 109.469 43.89C109.469 44.0833 109.399 44.24 109.259 44.36C109.125 44.48 108.949 44.54 108.729 44.54C108.509 44.54 108.332 44.48 108.199 44.36C108.065 44.24 107.999 44.0833 107.999 43.89ZM109.299 45.49V51H108.159V45.49H109.299ZM113.128 45.42C113.842 45.42 114.432 45.61 114.898 45.99C115.365 46.3633 115.655 46.8733 115.768 47.52H114.558C114.492 47.1733 114.328 46.9033 114.068 46.71C113.815 46.51 113.495 46.41 113.108 46.41C112.668 46.41 112.302 46.5667 112.008 46.88C111.715 47.1867 111.568 47.64 111.568 48.24C111.568 48.84 111.715 49.2967 112.008 49.61C112.302 49.9233 112.668 50.08 113.108 50.08C113.495 50.08 113.815 49.98 114.068 49.78C114.328 49.58 114.492 49.3067 114.558 48.96H115.768C115.655 49.6067 115.365 50.12 114.898 50.5C114.432 50.88 113.842 51.07 113.128 51.07C112.595 51.07 112.122 50.9567 111.708 50.73C111.302 50.5033 110.982 50.1767 110.748 49.75C110.515 49.3233 110.398 48.82 110.398 48.24C110.398 47.6667 110.515 47.1667 110.748 46.74C110.982 46.3133 111.302 45.9867 111.708 45.76C112.122 45.5333 112.595 45.42 113.128 45.42ZM121.99 47.98C121.99 48.1667 121.976 48.33 121.95 48.47H117.71C117.73 49.0367 117.886 49.4567 118.18 49.73C118.473 50.0033 118.836 50.14 119.27 50.14C119.65 50.14 119.97 50.0433 120.23 49.85C120.496 49.6567 120.66 49.4 120.72 49.08H121.94C121.866 49.4667 121.713 49.81 121.48 50.11C121.246 50.41 120.943 50.6467 120.57 50.82C120.196 50.9867 119.78 51.07 119.32 51.07C118.786 51.07 118.313 50.9567 117.9 50.73C117.493 50.5033 117.173 50.1767 116.94 49.75C116.706 49.3233 116.59 48.82 116.59 48.24C116.59 47.6667 116.706 47.1667 116.94 46.74C117.173 46.3133 117.493 45.9867 117.9 45.76C118.313 45.5333 118.786 45.42 119.32 45.42C119.86 45.42 120.33 45.5333 120.73 45.76C121.136 45.98 121.446 46.2867 121.66 46.68C121.88 47.0667 121.99 47.5 121.99 47.98ZM120.84 47.95C120.853 47.59 120.79 47.29 120.65 47.05C120.516 46.8033 120.33 46.6233 120.09 46.51C119.856 46.39 119.6 46.33 119.32 46.33C118.873 46.33 118.5 46.4667 118.2 46.74C117.9 47.0133 117.736 47.4167 117.71 47.95H120.84ZM126.17 45.4C126.81 45.4 127.324 45.6067 127.71 46.02C128.097 46.4333 128.29 47.0233 128.29 47.79V51H127.15V47.91C127.15 47.4167 127.024 47.0367 126.77 46.77C126.517 46.4967 126.17 46.36 125.73 46.36C125.277 46.36 124.914 46.5067 124.64 46.8C124.367 47.0867 124.23 47.51 124.23 48.07V51H123.09V45.49H124.23V46.7C124.377 46.2867 124.624 45.9667 124.97 45.74C125.317 45.5133 125.717 45.4 126.17 45.4ZM132.394 50.01V51H131.694C131.107 51 130.66 50.86 130.354 50.58C130.054 50.2933 129.904 49.82 129.904 49.16V46.46H129.114V45.49H129.904V44.12H131.054V45.49H132.384V46.46H131.054V49.18C131.054 49.4933 131.11 49.71 131.224 49.83C131.344 49.95 131.55 50.01 131.844 50.01H132.394ZM136.945 46.57C137.132 46.21 137.399 45.9267 137.745 45.72C138.092 45.5067 138.492 45.4 138.945 45.4V46.64H138.605C138.105 46.64 137.702 46.7633 137.395 47.01C137.095 47.25 136.945 47.65 136.945 48.21V51H135.805V45.49H136.945V46.57ZM144.879 45.49V51H143.729V49.8C143.589 50.2067 143.346 50.5233 142.999 50.75C142.653 50.97 142.249 51.08 141.789 51.08C141.149 51.08 140.636 50.8733 140.249 50.46C139.863 50.0467 139.669 49.4567 139.669 48.69V45.49H140.809V48.57C140.809 49.07 140.936 49.4567 141.189 49.73C141.443 49.9967 141.789 50.13 142.229 50.13C142.683 50.13 143.046 49.9833 143.319 49.69C143.593 49.3967 143.729 48.97 143.729 48.41V45.49H144.879ZM149.405 45.42C149.885 45.42 150.311 45.5333 150.685 45.76C151.065 45.9867 151.361 46.3133 151.575 46.74C151.788 47.1667 151.895 47.6667 151.895 48.24C151.895 48.82 151.788 49.3233 151.575 49.75C151.361 50.1767 151.065 50.5033 150.685 50.73C150.311 50.9567 149.885 51.07 149.405 51.07C148.905 51.07 148.478 50.9467 148.125 50.7C147.771 50.4533 147.525 50.1267 147.385 49.72V51H146.245V43.6H147.385V46.77C147.525 46.3633 147.771 46.0367 148.125 45.79C148.478 45.5433 148.905 45.42 149.405 45.42ZM149.055 46.42C148.735 46.42 148.448 46.4967 148.195 46.65C147.941 46.7967 147.741 47.01 147.595 47.29C147.448 47.5633 147.375 47.88 147.375 48.24C147.375 48.6067 147.448 48.9267 147.595 49.2C147.741 49.4733 147.941 49.6867 148.195 49.84C148.448 49.9867 148.735 50.06 149.055 50.06C149.561 50.06 149.968 49.9 150.275 49.58C150.581 49.2533 150.735 48.8067 150.735 48.24C150.735 47.68 150.581 47.2367 150.275 46.91C149.968 46.5833 149.561 46.42 149.055 46.42ZM156.153 45.42C156.633 45.42 157.059 45.5333 157.433 45.76C157.813 45.9867 158.109 46.3133 158.323 46.74C158.536 47.1667 158.643 47.6667 158.643 48.24C158.643 48.82 158.536 49.3233 158.323 49.75C158.109 50.1767 157.813 50.5033 157.433 50.73C157.059 50.9567 156.633 51.07 156.153 51.07C155.653 51.07 155.226 50.9467 154.873 50.7C154.519 50.4533 154.273 50.1267 154.133 49.72V51H152.993V43.6H154.133V46.77C154.273 46.3633 154.519 46.0367 154.873 45.79C155.226 45.5433 155.653 45.42 156.153 45.42ZM155.803 46.42C155.483 46.42 155.196 46.4967 154.943 46.65C154.689 46.7967 154.489 47.01 154.343 47.29C154.196 47.5633 154.123 47.88 154.123 48.24C154.123 48.6067 154.196 48.9267 154.343 49.2C154.489 49.4733 154.689 49.6867 154.943 49.84C155.196 49.9867 155.483 50.06 155.803 50.06C156.309 50.06 156.716 49.9 157.023 49.58C157.329 49.2533 157.483 48.8067 157.483 48.24C157.483 47.68 157.329 47.2367 157.023 46.91C156.716 46.5833 156.309 46.42 155.803 46.42ZM164.861 47.98C164.861 48.1667 164.847 48.33 164.821 48.47H160.581C160.601 49.0367 160.757 49.4567 161.051 49.73C161.344 50.0033 161.707 50.14 162.141 50.14C162.521 50.14 162.841 50.0433 163.101 49.85C163.367 49.6567 163.531 49.4 163.591 49.08H164.811C164.737 49.4667 164.584 49.81 164.351 50.11C164.117 50.41 163.814 50.6467 163.441 50.82C163.067 50.9867 162.651 51.07 162.191 51.07C161.657 51.07 161.184 50.9567 160.771 50.73C160.364 50.5033 160.044 50.1767 159.811 49.75C159.577 49.3233 159.461 48.82 159.461 48.24C159.461 47.6667 159.577 47.1667 159.811 46.74C160.044 46.3133 160.364 45.9867 160.771 45.76C161.184 45.5333 161.657 45.42 162.191 45.42C162.731 45.42 163.201 45.5333 163.601 45.76C164.007 45.98 164.317 46.2867 164.531 46.68C164.751 47.0667 164.861 47.5 164.861 47.98ZM163.711 47.95C163.724 47.59 163.661 47.29 163.521 47.05C163.387 46.8033 163.201 46.6233 162.961 46.51C162.727 46.39 162.471 46.33 162.191 46.33C161.744 46.33 161.371 46.4667 161.071 46.74C160.771 47.0133 160.607 47.4167 160.581 47.95H163.711ZM167.101 46.57C167.288 46.21 167.555 45.9267 167.901 45.72C168.248 45.5067 168.648 45.4 169.101 45.4V46.64H168.761C168.261 46.64 167.858 46.7633 167.551 47.01C167.251 47.25 167.101 47.65 167.101 48.21V51H165.961V45.49H167.101V46.57Z" fill="#111111"/>
</svg>
