<svg width="50" height="5" viewBox="0 0 50 5" fill="none" xmlns="http://www.w3.org/2000/svg">
<path d="M0 1.99387C0 1.99387 0.047454 1.98256 0.139252 1.96069C0.23128 1.93899 0.367883 1.90663 0.547448 1.86801C0.906693 1.79175 1.43329 1.67538 2.11205 1.55249C2.78965 1.42539 3.61629 1.28063 4.5709 1.13422C5.52574 0.988636 6.60808 0.840162 7.79477 0.701261C8.0909 0.663214 8.39486 0.634411 8.70423 0.600655C9.01383 0.568716 9.32873 0.532237 9.6502 0.50236C10.293 0.442277 10.9581 0.379388 11.6438 0.328549C13.0142 0.216801 14.4654 0.139221 15.9686 0.0768276C16.7206 0.0536362 17.4855 0.0260707 18.2606 0.0171573C18.6481 0.0123704 19.038 0.00758361 19.43 0.00271425C19.8219 -0.004466 20.216 0.00477753 20.6115 0.00560285C21.0071 0.00906918 21.4043 0.00956436 21.8027 0.0154241C22.201 0.0252454 22.6003 0.0350666 23.0004 0.0449704C23.8012 0.0604863 24.6033 0.105466 25.4062 0.137818C25.8078 0.153169 26.2078 0.184449 26.6082 0.209291C27.0083 0.235453 27.408 0.261533 27.807 0.287613C28.2055 0.317655 28.6024 0.353061 28.9983 0.387889C29.3939 0.423955 29.789 0.454905 30.1812 0.49485C30.9643 0.580518 31.7427 0.657767 32.5067 0.756145C32.8884 0.806819 33.2678 0.857163 33.6445 0.907095C34.0209 0.957852 34.3954 1.00448 34.7629 1.06638C35.131 1.1249 35.4961 1.183 35.8578 1.24052C36.2189 1.29995 36.5789 1.34971 36.929 1.4197C37.631 1.55257 38.3196 1.67571 38.9853 1.80809C39.6464 1.95161 40.2894 2.09118 40.9115 2.2262C40.9892 2.24336 41.0663 2.26053 41.1433 2.27761C41.2194 2.29651 41.2952 2.31525 41.3708 2.33398C41.5217 2.37137 41.6711 2.40843 41.8195 2.44515C42.1154 2.51885 42.4059 2.59123 42.6904 2.66205C42.9736 2.73542 43.2539 2.8002 43.5221 2.87622C43.7901 2.95198 44.052 3.02601 44.3073 3.09814C44.5619 3.17102 44.81 3.242 45.0512 3.31099C45.2915 3.38156 45.5283 3.44288 45.7503 3.51666C46.1961 3.66101 46.6143 3.79298 46.9976 3.92049C47.1895 3.98362 47.3736 4.0442 47.5493 4.10206C47.6372 4.13094 47.723 4.15917 47.8066 4.18673C47.8891 4.21645 47.9695 4.2455 48.0478 4.27372C48.6744 4.49879 49.1595 4.68489 49.4926 4.80754C49.8235 4.93307 50 5 50 5C50 5 49.8104 4.95419 49.4551 4.86836C49.1017 4.77964 48.5803 4.65576 47.9257 4.48632C47.8437 4.46553 47.7595 4.44415 47.6733 4.42228C47.5856 4.40264 47.4959 4.38242 47.404 4.36178C47.2203 4.32052 47.0281 4.27735 46.8278 4.23237C46.4268 4.14357 45.9967 4.04164 45.5361 3.93609C45.0734 3.83465 44.5767 3.73652 44.0563 3.62783C43.7963 3.57336 43.5297 3.51757 43.2568 3.46046C42.9844 3.40244 42.6998 3.35614 42.4128 3.30167C41.8362 3.19817 41.242 3.0766 40.6191 2.97179C39.9961 2.86854 39.3521 2.76183 38.6901 2.65206C38.0248 2.55442 37.3414 2.45423 36.643 2.35164C35.9435 2.25426 35.2249 2.16826 34.4971 2.07335C34.134 2.02276 33.7628 1.99082 33.3919 1.94749C33.0206 1.90639 32.6466 1.86504 32.2704 1.82353L31.9879 1.79233L31.7032 1.76674C31.5131 1.74966 31.3225 1.73249 31.1315 1.71533C30.7499 1.67926 30.3664 1.64311 29.9815 1.60672C29.2091 1.54746 28.4304 1.4877 27.6488 1.4277C27.2572 1.40385 26.8647 1.37992 26.4718 1.35598C26.0788 1.33304 25.6862 1.30481 25.2919 1.29021C24.5041 1.25521 23.7172 1.20734 22.9307 1.18894C22.5379 1.17574 22.1458 1.16261 21.7549 1.14941C21.3636 1.14115 20.9734 1.1329 20.5848 1.12473C19.8075 1.10558 19.0358 1.10319 18.2732 1.09535C17.8919 1.08949 17.5128 1.09378 17.1364 1.09543C16.7599 1.09634 16.3861 1.09717 16.0155 1.09807C14.533 1.11895 13.0981 1.14058 11.7387 1.19257C10.3785 1.23582 9.09319 1.29854 7.90638 1.36316C7.31321 1.39659 6.74434 1.42993 6.20403 1.46666C5.66257 1.49852 5.15106 1.54011 4.66846 1.57312C3.70544 1.64724 2.86394 1.7117 2.17309 1.77714C1.48225 1.84201 0.937907 1.89219 0.568181 1.93271C0.197418 1.97249 0 1.99387 0 1.99387Z" fill="#FFB301"/>
</svg>
