<svg width="222" height="71" viewBox="0 0 222 71" fill="none" xmlns="http://www.w3.org/2000/svg">
<circle cx="111" cy="36" r="35" fill="#C0C0C0"/>
<circle cx="111" cy="36" r="25" fill="#111111"/>
<path fill-rule="evenodd" clip-rule="evenodd" d="M92.1718 35.4261C92.3213 34.8477 92.4296 34.2548 92.6291 33.6942C93.0281 32.5723 93.6924 31.6063 94.5105 30.7445C94.6103 30.6392 94.7063 30.5302 94.8345 30.3899C94.6891 30.3621 94.5759 30.3475 94.4666 30.3183C94.1103 30.2233 93.9017 29.9478 93.912 29.595C93.9222 29.2495 94.1545 28.9274 94.511 28.9141C95.354 28.8826 96.1998 28.8818 97.0425 28.9172C97.373 28.931 97.6105 29.183 97.6182 29.532C97.6365 30.351 97.6427 31.1715 97.6145 31.9899C97.6017 32.3633 97.28 32.6184 96.9282 32.6278C96.5676 32.6375 96.2559 32.3716 96.2035 31.9855C96.1713 31.7475 96.171 31.5052 96.1563 31.2649C96.1238 31.2435 96.0916 31.222 96.0591 31.2006C95.623 31.7164 95.1382 32.1988 94.7598 32.7538C93.142 35.1271 93.3008 37.7232 95.1421 39.9291C96.6684 41.7576 98.6559 42.9006 100.816 43.7946C100.832 43.8016 100.858 43.7855 100.873 43.7819C100.679 42.7256 100.453 41.6754 100.297 40.6153C99.9485 38.2571 99.8828 35.8877 100.074 33.5093C100.235 31.5024 100.566 29.527 101.141 27.5983C102.026 24.6309 103.321 21.8801 105.564 19.6745C106.85 18.4095 108.362 17.5445 110.191 17.3282C110.237 17.3227 110.28 17.2923 110.324 17.2735C110.765 17.2735 111.206 17.2735 111.647 17.2735C112.213 17.4191 112.792 17.5272 113.342 17.7183C114.456 18.105 115.414 18.7581 116.273 19.5608C116.388 19.6686 116.505 19.7749 116.658 19.9162C116.682 19.7988 116.7 19.7247 116.712 19.6495C116.772 19.2599 117.06 18.9855 117.418 18.9776C117.771 18.9698 118.095 19.2322 118.139 19.6263C118.181 20.0136 118.166 20.4077 118.171 20.7988C118.175 21.1539 118.18 21.5094 118.169 21.8642C118.15 22.4422 117.873 22.7138 117.299 22.7188C116.626 22.7246 115.952 22.7245 115.279 22.7187C114.751 22.7142 114.439 22.4465 114.429 22.0076C114.42 21.5585 114.744 21.2683 115.28 21.2513C115.45 21.246 115.62 21.2506 115.873 21.2506C115.372 20.6583 114.845 20.1991 114.257 19.8137C111.878 18.2538 109.335 18.4216 107.14 20.2459C105.557 21.5609 104.472 23.235 103.641 25.0802C101.833 29.0938 101.281 33.3317 101.481 37.6934C101.581 39.8777 101.925 42.022 102.528 44.1252C102.598 44.3669 102.714 44.4775 102.953 44.5456C106.456 45.5414 110.019 45.8257 113.641 45.5152C116.528 45.2678 119.321 44.6515 121.965 43.4452C123.842 42.5891 125.563 41.5059 126.874 39.8694C127.89 38.6013 128.467 37.1867 128.295 35.5251C128.239 34.982 128.491 34.6281 128.932 34.5758C129.366 34.5245 129.654 34.805 129.747 35.3657C129.758 35.4358 129.782 35.5039 129.8 35.573C129.8 35.9649 129.8 36.3569 129.8 36.7488C129.661 37.3041 129.565 37.8743 129.376 38.412C128.795 40.0656 127.719 41.3673 126.373 42.456C123.742 44.5833 120.68 45.7505 117.411 46.4481C114.578 47.0525 111.714 47.2191 108.828 47.0342C107.018 46.9181 105.23 46.6379 103.468 46.2035C103.412 46.1897 103.355 46.1806 103.187 46.1472C103.595 46.9763 103.931 47.7452 104.341 48.4724C105.084 49.7915 105.993 50.9788 107.171 51.9577C109.455 53.8566 112.313 53.9157 114.648 52.0799C114.783 51.9741 114.913 51.8604 115.057 51.7684C115.425 51.5324 115.828 51.5981 116.067 51.9224C116.306 52.2454 116.276 52.6702 115.915 52.9327C115.314 53.3705 114.713 53.8375 114.044 54.1446C113.343 54.4664 112.562 54.614 111.816 54.8387C111.759 54.856 111.704 54.8803 111.647 54.9016C111.206 54.9016 110.765 54.9016 110.324 54.9016C110.147 54.8653 109.97 54.827 109.792 54.7932C107.898 54.4352 106.378 53.4288 105.103 52.0335C103.487 50.2656 102.379 48.1935 101.586 45.9467C101.501 45.7045 101.371 45.5731 101.128 45.4878C99.1175 44.7817 97.2519 43.8056 95.5945 42.4538C94.2534 41.3602 93.1754 40.0632 92.5948 38.4109C92.406 37.8738 92.3102 37.3039 92.172 36.7491C92.1718 36.3079 92.1718 35.867 92.1718 35.4261Z" fill="white"/>
<path fill-rule="evenodd" clip-rule="evenodd" d="M122.926 33.1314C122.926 34.1223 122.959 35.1148 122.917 36.1039C122.87 37.1941 122.198 37.8934 121.12 37.9564C120.28 38.0055 119.43 37.9923 118.591 37.9291C117.728 37.8643 117.034 37.1407 117.011 36.2728C116.969 34.7202 116.984 33.166 116.981 31.6124C116.98 31.0623 116.97 30.5102 117.008 29.962C117.07 29.0613 117.809 28.3336 118.713 28.2992C119.531 28.2681 120.352 28.2686 121.171 28.2974C122.083 28.3295 122.848 29.0345 122.891 29.9402C122.941 31.0017 122.903 32.0675 122.903 33.1313C122.91 33.1314 122.918 33.1314 122.926 33.1314ZM118.45 33.1188C118.45 34.0617 118.446 35.0047 118.452 35.9476C118.455 36.3651 118.59 36.5015 119.002 36.5069C119.639 36.5152 120.276 36.5155 120.912 36.5066C121.31 36.5013 121.457 36.3664 121.458 35.977C121.465 34.0789 121.465 32.1808 121.459 30.2827C121.457 29.881 121.323 29.7567 120.924 29.7527C120.299 29.7463 119.675 29.7483 119.05 29.7516C118.557 29.7541 118.453 29.8584 118.451 30.3635C118.448 31.2819 118.45 32.2004 118.45 33.1188Z" fill="white"/>
<path fill-rule="evenodd" clip-rule="evenodd" d="M110.219 33.1245C110.219 32.1945 110.212 31.2644 110.22 30.3345C110.231 29.0349 110.98 28.2899 112.275 28.2813C112.887 28.2773 113.499 28.2751 114.111 28.2828C114.634 28.2893 114.95 28.5662 114.955 29.0013C114.96 29.4282 114.638 29.7337 114.128 29.7463C113.504 29.7617 112.88 29.747 112.256 29.752C111.806 29.7556 111.696 29.8657 111.69 30.3227C111.684 30.812 111.699 31.3019 111.685 31.791C111.678 32.0282 111.754 32.1115 111.998 32.1069C112.72 32.0933 113.442 32.0953 114.164 32.1039C115.326 32.1181 116.09 32.8097 116.157 33.9606C116.199 34.68 116.197 35.4059 116.155 36.1252C116.091 37.192 115.427 37.8878 114.367 37.9535C113.527 38.0054 112.678 37.9921 111.838 37.93C110.971 37.8659 110.283 37.1455 110.25 36.2804C110.21 35.2297 110.24 34.1765 110.24 33.1245C110.233 33.1245 110.226 33.1245 110.219 33.1245ZM111.687 33.6185C111.687 34.4281 111.684 35.2235 111.688 36.0188C111.69 36.3524 111.88 36.5065 112.201 36.5077C112.863 36.5102 113.524 36.5117 114.185 36.5067C114.506 36.5042 114.692 36.3421 114.693 36.0105C114.697 35.3613 114.698 34.7122 114.693 34.0631C114.691 33.7362 114.523 33.5703 114.189 33.5719C113.429 33.5754 112.67 33.5718 111.91 33.5747C111.841 33.575 111.773 33.601 111.687 33.6185Z" fill="white"/>
<path fill-rule="evenodd" clip-rule="evenodd" d="M107.933 33.8663C107.39 33.8663 106.891 33.8692 106.392 33.8646C106.234 33.8632 106.073 33.8571 105.919 33.8259C105.549 33.7508 105.314 33.4531 105.326 33.0997C105.338 32.7283 105.609 32.4278 106.003 32.411C106.565 32.3869 107.128 32.3994 107.691 32.3951C107.751 32.3946 107.81 32.3866 107.91 32.379C107.919 32.1896 107.933 32.0123 107.934 31.8349C107.937 31.3086 107.936 30.7823 107.933 30.256C107.931 29.9589 107.813 29.7556 107.482 29.7539C106.883 29.7509 106.283 29.7505 105.683 29.754C105.426 29.7556 105.273 29.8846 105.24 30.1473C105.231 30.2197 105.211 30.2912 105.192 30.3618C105.09 30.7272 104.79 30.9378 104.427 30.9C104.063 30.8621 103.807 30.5954 103.778 30.2217C103.703 29.2916 104.474 28.3603 105.424 28.3064C106.192 28.2628 106.966 28.2679 107.735 28.3048C108.562 28.3445 109.285 29.06 109.369 29.8826C109.409 30.283 109.404 30.6889 109.405 31.0923C109.408 32.6712 109.409 34.2502 109.405 35.8291C109.402 37.2318 108.652 37.9798 107.247 37.9772C106.623 37.9762 105.996 37.9945 105.378 37.9317C104.41 37.8332 103.708 36.9432 103.774 35.9789C103.802 35.5792 104.063 35.3001 104.436 35.2725C104.824 35.2438 105.107 35.4589 105.202 35.8559C105.359 36.509 105.359 36.5092 106.021 36.5095C106.486 36.5096 106.951 36.5109 107.416 36.5078C107.736 36.5059 107.93 36.3579 107.932 36.0224C107.936 35.3254 107.933 34.6283 107.933 33.8663Z" fill="white"/>
<path fill-rule="evenodd" clip-rule="evenodd" d="M127.84 28.9951C127.849 30.0645 126.991 30.9398 125.924 30.9494C124.837 30.9592 123.954 30.0866 123.957 29.0053C123.96 27.9432 124.836 27.0635 125.896 27.0589C126.954 27.0542 127.832 27.9282 127.84 28.9951ZM126.361 29.076C126.376 28.7735 126.191 28.5571 125.936 28.5352C125.677 28.5129 125.427 28.7356 125.436 29.0007C125.446 29.281 125.593 29.4636 125.884 29.4729C126.172 29.482 126.329 29.3178 126.361 29.076Z" fill="white"/>
<path fill-rule="evenodd" clip-rule="evenodd" d="M128.188 33.6572C127.799 33.6528 127.467 33.3192 127.462 32.9292C127.456 32.53 127.811 32.1845 128.215 32.1951C128.606 32.2053 128.922 32.5399 128.917 32.9377C128.911 33.3284 128.573 33.6616 128.188 33.6572Z" fill="white"/>
<path fill-rule="evenodd" clip-rule="evenodd" d="M118.134 50.2035C118.127 50.6153 117.82 50.9301 117.422 50.9322C117.01 50.9344 116.691 50.5986 116.703 50.1772C116.715 49.7738 117.035 49.4642 117.433 49.4692C117.832 49.4743 118.14 49.797 118.134 50.2035Z" fill="white"/>
<path d="M220.996 0.905534C220.943 0.355719 220.455 -0.0477003 219.906 0.00447196L210.946 0.854668C210.396 0.90684 209.993 1.39485 210.045 1.94466C210.097 2.49448 210.585 2.8979 211.135 2.84572L219.099 2.08999L219.855 10.0542C219.907 10.604 220.395 11.0075 220.945 10.9553C221.494 10.9031 221.898 10.4151 221.846 9.86529L220.996 0.905534ZM145.942 36.9983C160.512 37.8454 195.721 31.9396 220.771 1.63715L219.229 0.362853C194.679 30.0604 160.155 35.8213 146.058 35.0017L145.942 36.9983Z" fill="#F1F1F1"/>
<path d="M1.00447 0.905534C1.05664 0.355719 1.54465 -0.0477003 2.09447 0.00447196L11.0542 0.854668C11.604 0.90684 12.0075 1.39485 11.9553 1.94466C11.9031 2.49448 11.4151 2.8979 10.8653 2.84572L2.90106 2.08999L2.14533 10.0542C2.09316 10.604 1.60516 11.0075 1.05534 10.9553C0.505524 10.9031 0.102104 10.4151 0.154274 9.86529L1.00447 0.905534ZM76.058 36.9983C61.4884 37.8454 26.2793 31.9396 1.22926 1.63715L2.77074 0.362853C27.3207 30.0604 61.8449 35.8213 75.942 35.0017L76.058 36.9983Z" fill="#F1F1F1"/>
</svg>
