<svg width="59" height="24" viewBox="0 0 59 24" fill="none" xmlns="http://www.w3.org/2000/svg">
<path opacity="0.4" d="M47 21.5858C47 22.4767 48.0771 22.9229 48.7071 22.2929L58.2929 12.7071C58.6834 12.3166 58.6834 11.6834 58.2929 11.2929L48.7071 1.70711C48.0771 1.07714 47 1.52331 47 2.41421V21.5858Z" fill="#C0C0C0"/>
<path opacity="0.3" d="M22 19.5858C22 20.4767 23.0771 20.9229 23.7071 20.2929L31.2929 12.7071C31.6834 12.3166 31.6834 11.6834 31.2929 11.2929L23.7071 3.70711C23.0771 3.07714 22 3.52331 22 4.41421V19.5858Z" fill="#C0C0C0"/>
<path opacity="0.2" d="M0 16.5858C0 17.4767 1.07714 17.9229 1.70711 17.2929L6.29289 12.7071C6.68342 12.3166 6.68342 11.6834 6.29289 11.2929L1.70711 6.70711C1.07714 6.07714 0 6.52331 0 7.41421V16.5858Z" fill="#C0C0C0"/>
</svg>
